<?xml version="1.0" encoding="UTF-8" standalone="no"?>
<!-- Created with Inkscape (http://www.inkscape.org/) -->

<svg
   xmlns:dc="http://purl.org/dc/elements/1.1/"
   xmlns:cc="http://creativecommons.org/ns#"
   xmlns:rdf="http://www.w3.org/1999/02/22-rdf-syntax-ns#"
   xmlns:svg="http://www.w3.org/2000/svg"
   xmlns="http://www.w3.org/2000/svg"
   version="1.1"
   width="360"
   height="500"
   viewBox="0 0 360 500"
   id="svg2"
   xml:space="preserve"
   style="fill-rule:evenodd"><metadata
   id="metadata206"><rdf:RDF><cc:Work
       rdf:about=""><dc:format>image/svg+xml</dc:format><dc:type
         rdf:resource="http://purl.org/dc/dcmitype/StillImage" /><dc:title></dc:title></cc:Work></rdf:RDF></metadata>
 <defs
   id="defs4">
  <style
   type="text/css"
   id="style6" />
 
  
  
  
  
  
  
  
  
  
  
  
  
  
  
  
  
  
  
  
  
  
  
  
  
  
  
  
  
  
  
  
  
  
  
  
  
  
  
  
  
  
  
  
 </defs>
 
<polygon
   points="-538,150 -429,150 -429,144 -538,144 "
   transform="matrix(0.38523369,0,0,0.25786126,275.07628,302.93081)"
   id="polygon150"
   style="fill:#8f8f8f;fill-opacity:0.69019608;fill-rule:nonzero" /><polygon
   points="-437,166 -437,158 -546,158 -546,166 "
   transform="matrix(0.4762884,0,0,0.27721361,317.41672,305.80879)"
   id="polygon152"
   style="fill:#8f8f8f;fill-opacity:0.69019608;fill-rule:nonzero" /><path
   d="m 62.412285,300.58915 c -5.482456,0 -10.964912,4.38596 -10.964912,9.86842 0,5.48246 5.482456,9.86842 10.964912,9.86842 5.482456,0 9.86842,-4.38596 9.86842,-9.86842 0,-5.48246 -4.385964,-9.86842 -9.86842,-9.86842 z m 0,23.02631 c -7.675439,0 -13.157895,-5.48245 -13.157895,-13.15789 0,-6.57895 5.482456,-12.0614 13.157895,-12.0614 6.578947,0 12.061403,5.48245 12.061403,12.0614 0,7.67544 -5.482456,13.15789 -12.061403,13.15789 z"
   id="path154"
   style="fill:#8f8f8f;fill-opacity:0.69019608;fill-rule:nonzero" /><path
   d="m 308.02631,220.54529 c 0,53.72807 -43.85964,96.49123 -96.49122,96.49123 -52.63158,0 -95.39474,-42.76316 -95.39474,-96.49123 0,-52.63158 42.76316,-95.39473 95.39474,-95.39473 52.63158,0 96.49122,42.76315 96.49122,95.39473 z"
   id="path156"
   style="fill:#dfd9ce;fill-rule:nonzero" /><polygon
   points="-356,-26 -356,-28 -377,-28 -377,-26 "
   transform="matrix(1.0964912,0,0,1.0964912,638.07016,182.1681)"
   id="polygon158"
   style="fill:#2b2928;fill-rule:nonzero" /><polygon
   points="-365,-16 -365,-37 -368,-37 -368,-16 "
   transform="matrix(1.0964912,0,0,1.0964912,638.07016,182.1681)"
   id="polygon160"
   style="fill:#2b2928;fill-rule:nonzero" /><path
   d="m 287.19298,240.28213 c 0,14.25439 -12.0614,25.2193 -26.31579,25.2193 -13.15789,0 -25.2193,-10.96491 -25.2193,-25.2193 0,-14.25438 12.06141,-26.31579 25.2193,-26.31579 14.25439,0 26.31579,12.06141 26.31579,26.31579 z"
   id="path162"
   style="fill:#fefefe;fill-rule:nonzero" /><path
   d="m 200.57018,159.14178 c 0,6.57895 -5.48246,12.06141 -12.06141,12.06141 -6.57894,0 -12.0614,-5.48246 -12.0614,-12.06141 0,-6.57894 5.48246,-12.0614 12.0614,-12.0614 6.57895,0 12.06141,5.48246 12.06141,12.0614 z"
   id="path164"
   style="fill:#fefefe;fill-rule:nonzero" /><polygon
   points="-296,-3 -296,-5 -351,-5 -351,-3 "
   transform="matrix(1.0964912,0,0,1.0964912,638.07016,182.1681)"
   id="polygon166"
   style="fill:#8f8f8f;fill-opacity:0.69019608;fill-rule:nonzero" /><polygon
   points="-327,6 -327,4 -363,4 -363,6 "
   transform="matrix(1.0964912,0,0,1.0964912,638.07016,182.1681)"
   id="polygon168"
   style="fill:#2b2928;fill-rule:nonzero" /><path
   d="m 257.58772,297.29968 c -4.38597,0 -8.77193,3.28947 -8.77193,8.77192 0,4.38597 4.38596,8.77193 8.77193,8.77193 4.38596,0 8.77193,-4.38596 8.77193,-8.77193 0,-5.48245 -4.38597,-8.77192 -8.77193,-8.77192 z m 0,19.73684 c -6.57895,0 -10.96491,-5.48246 -10.96491,-10.96492 0,-6.57894 4.38596,-12.0614 10.96491,-12.0614 6.57895,0 10.96491,5.48246 10.96491,12.0614 0,5.48246 -4.38596,10.96492 -10.96491,10.96492 z"
   id="path170"
   style="fill:#fdd755;fill-opacity:1;fill-rule:nonzero" /><polygon
   points="-446,-23 -446,-25 -502,-25 -502,-23 "
   transform="matrix(1.0964912,0,0,1.0964912,638.07016,182.1681)"
   id="polygon172"
   style="fill:#fdd755;fill-opacity:1;fill-rule:nonzero" /><path
   d="m 209.34211,368.5716 c 0,3.28948 -2.19299,5.48246 -4.38597,5.48246 l -89.91228,0 c -3.28947,0 -5.48245,-2.19298 -5.48245,-5.48246 l 0,-150.21929 c 0,-2.19298 2.19298,-4.38597 5.48245,-4.38597 l 89.91228,0 c 2.19298,0 4.38597,2.19299 4.38597,4.38597 l 0,150.21929 z"
   id="path174"
   style="fill:#fefefe;fill-rule:nonzero" /><path
   d="m 115.04386,215.06284 c -2.19298,0 -4.38596,1.09649 -4.38596,3.28947 l 0,150.21929 c 0,2.19299 2.19298,4.38597 4.38596,4.38597 l 89.91228,0 c 2.19298,0 3.28947,-2.19298 3.28947,-4.38597 l 0,-150.21929 c 0,-2.19298 -1.09649,-3.28947 -3.28947,-3.28947 l -89.91228,0 z m 89.91228,160.08771 -89.91228,0 c -4.38596,0 -6.57894,-2.19298 -6.57894,-6.57895 l 0,-150.21929 c 0,-3.28947 2.19298,-6.57895 6.57894,-6.57895 l 89.91228,0 c 3.28947,0 6.57895,3.28948 6.57895,6.57895 l 0,150.21929 c 0,4.38597 -3.28948,6.57895 -6.57895,6.57895 z"
   id="path176"
   style="fill:#2b2928;fill-rule:nonzero" /><polygon
   points="-395,158 -395,41 -478,41 -478,158 "
   transform="matrix(1.0964912,0,0,1.0964912,638.07016,182.1681)"
   id="polygon178"
   style="fill:#00a5ff;fill-opacity:1;fill-rule:nonzero" /><polygon
   points="-478,9 -495,51 -378,51 -394,9 "
   transform="matrix(1.0964912,0,0,1.0964912,638.07016,182.1681)"
   id="polygon180"
   style="fill:#085c88;fill-opacity:1;fill-rule:nonzero" /><polygon
   points="-449,9 -454,51 -417,51 -422,9 "
   transform="matrix(1.0964912,0,0,1.0964912,638.07016,182.1681)"
   id="polygon182"
   style="fill:#fefefe;fill-rule:nonzero" /><path
   d="m 136.97369,238.08915 c 0,10.96491 -8.77193,20.83333 -20.83334,20.83333 -10.96491,0 -20.833329,-9.86842 -20.833329,-20.83333 l 41.666669,0 z"
   id="path184"
   style="fill:#fefefe;fill-rule:nonzero" /><path
   d="m 116.14035,260.01897 c -12.0614,0 -21.929821,-9.86842 -21.929821,-21.92982 l 2.192983,0 c 0,10.96491 8.771928,19.73684 19.736838,19.73684 10.96492,0 19.73685,-8.77193 19.73685,-19.73684 l 2.19298,0 c 0,12.0614 -9.86842,21.92982 -21.92983,21.92982 z"
   id="path186"
   style="fill:#2b2928;fill-rule:nonzero" /><path
   d="m 180.83333,238.08915 c 0,10.96491 -8.77193,20.83333 -20.83333,20.83333 -10.96491,0 -20.83333,-9.86842 -20.83333,-20.83333 l 41.66666,0 z"
   id="path188"
   style="fill:#085c88;fill-opacity:1;fill-rule:nonzero" /><path
   d="m 160,260.01897 c -12.0614,0 -21.92982,-9.86842 -21.92982,-21.92982 l 2.19298,0 c 0,10.96491 8.77193,19.73684 19.73684,19.73684 10.96491,0 19.73684,-8.77193 19.73684,-19.73684 l 2.19299,0 c 0,12.0614 -9.86843,21.92982 -21.92983,21.92982 z"
   id="path190"
   style="fill:#2b2928;fill-rule:nonzero" /><path
   d="m 223.59649,238.08915 c 0,10.96491 -8.77193,20.83333 -20.83333,20.83333 -10.96491,0 -20.83333,-9.86842 -20.83333,-20.83333 l 41.66666,0 z"
   id="path192"
   style="fill:#fefefe;fill-rule:nonzero" /><path
   d="m 202.76316,260.01897 c -12.0614,0 -21.92983,-9.86842 -21.92983,-21.92982 l 2.19299,0 c 0,10.96491 8.77193,19.73684 19.73684,19.73684 10.96491,0 19.73684,-8.77193 19.73684,-19.73684 l 2.19298,0 c 0,12.0614 -9.86842,21.92982 -21.92982,21.92982 z"
   id="path194"
   style="fill:#2b2928;fill-rule:nonzero" /><path
   d="m 97.500003,236.99266 123.903507,0 -16.44737,-43.85965 -89.91228,0 -17.543857,43.85965 z m 128.289467,2.19298 -131.578941,0 18.640351,-49.3421 94.29824,0 18.64035,49.3421 z"
   id="path196"
   style="fill:#2b2928;fill-rule:nonzero" /><polygon
   points="-451,111 -419,80 -418,81 -449,113 "
   transform="matrix(1.0964912,0,0,1.0964912,638.07016,182.1681)"
   id="polygon198"
   style="fill:#fefefe;fill-rule:nonzero" /><polygon
   points="-449,127 -420,98 -419,100 -447,129 "
   transform="matrix(1.0964912,0,0,1.0964912,638.07016,182.1681)"
   id="polygon200"
   style="fill:#fefefe;fill-rule:nonzero" /></svg>