<?xml version="1.0" encoding="UTF-8" standalone="no"?>
<!-- Created with Inkscape (http://www.inkscape.org/) -->

<svg
   xmlns:dc="http://purl.org/dc/elements/1.1/"
   xmlns:cc="http://creativecommons.org/ns#"
   xmlns:rdf="http://www.w3.org/1999/02/22-rdf-syntax-ns#"
   xmlns:svg="http://www.w3.org/2000/svg"
   xmlns="http://www.w3.org/2000/svg"
   version="1.1"
   width="360"
   height="500"
   viewBox="0 0 360 500"
   id="svg2"
   xml:space="preserve"
   style="fill-rule:evenodd"><metadata
   id="metadata206"><rdf:RDF><cc:Work
       rdf:about=""><dc:format>image/svg+xml</dc:format><dc:type
         rdf:resource="http://purl.org/dc/dcmitype/StillImage" /><dc:title></dc:title></cc:Work></rdf:RDF></metadata>
 <defs
   id="defs4">
  <style
   type="text/css"
   id="style6" />
 
  
  
  
  
  
  
  
  
  
  
  
  
  
  
  
  
  
  
  
  
  
  
  
  
  
  
  
  
  
  
  
  
  
  
  
  
  
  
  
  
  
  
  
 </defs>
 <polygon
   points="248,297 248,126 68,126 68,297 "
   transform="translate(18,0)"
   id="polygon12"
   style="fill:#dfd9ce;fill-rule:nonzero" /><path
   d="m 291,175 c 0,25 -20,45 -45,45 -25,0 -45,-20 -45,-45 0,-25 20,-45 45,-45 25,0 45,20 45,45 z"
   id="path14"
   style="fill:#085c88;fill-opacity:1;fill-rule:nonzero" /><path
   d="m 246,131 c -12,0 -21,20 -21,44 0,24 9,44 21,44 11,0 20,-20 20,-44 0,-24 -9,-44 -20,-44 z m 0,90 c -13,0 -24,-20 -24,-46 0,-26 11,-46 24,-46 12,0 23,20 23,46 0,26 -11,46 -23,46 z"
   id="path16"
   style="fill:#fefefe;fill-rule:nonzero" /><polygon
   points="275,154 275,152 184,152 184,154 "
   transform="translate(18,0)"
   id="polygon18"
   style="fill:#fefefe;fill-rule:nonzero" /><polygon
   points="275,191 275,189 184,189 184,191 "
   transform="translate(18,0)"
   id="polygon20"
   style="fill:#fefefe;fill-rule:nonzero" /><path
   d="m 229,329 -69,0 c -6,0 -11,-5 -11,-10 l 0,-134 c 0,-6 5,-11 11,-11 l 69,0 c 6,0 11,5 11,11 l 0,134 c 0,5 -5,10 -11,10 z"
   id="path22"
   style="fill:#fefefe;fill-rule:nonzero" /><polygon
   points="221,319 221,191 131,191 131,319 "
   transform="translate(18,0)"
   id="polygon24"
   style="fill:#00a5ff;fill-opacity:1;fill-rule:nonzero" /><path
   d="m 159,175 c -5,0 -8,4 -8,9 l 0,136 c 0,4 3,8 8,8 l 71,0 c 5,0 8,-4 8,-8 l 0,-136 c 0,-5 -3,-9 -8,-9 l -71,0 z m 71,156 -71,0 c -6,0 -11,-5 -11,-11 l 0,-136 c 0,-6 5,-11 11,-11 l 71,0 c 6,0 11,5 11,11 l 0,136 c 0,6 -5,11 -11,11 z"
   id="path26"
   style="fill:#2b2928;fill-rule:nonzero" /><path
   d="m 217,180 c -1,0 -2,1 -2,2 0,2 1,3 2,3 2,0 2,-1 2,-3 0,-1 0,-2 -2,-2 z m 0,7 c -2,0 -4,-2 -4,-5 0,-2 2,-4 4,-4 3,0 5,2 5,4 0,3 -2,5 -5,5 z"
   id="path28"
   style="fill:#2b2928;fill-rule:nonzero" /><path
   d="m 216,250 c 0,13 -10,23 -23,23 -13,0 -24,-10 -24,-23 0,-13 11,-24 24,-24 13,0 23,11 23,24 z"
   id="path30"
   style="fill:#fefefe;fill-rule:nonzero" /><path
   d="m 201,251 c 0,5 -4,10 -10,10 -5,0 -9,-5 -9,-10 0,-5 4,-9 9,-9 6,0 10,4 10,9 z"
   id="path32"
   style="fill:#fdd755;fill-rule:nonzero" /><path
   d="m 203,242 c 0,2 -2,4 -5,4 -3,0 -5,-2 -5,-4 0,-3 2,-5 5,-5 3,0 5,2 5,5 z"
   id="path34"
   style="fill:#085c88;fill-opacity:1;fill-rule:nonzero" /><polygon
   points="157,314 157,306 149,306 149,314 "
   transform="translate(18,0)"
   id="polygon36"
   style="fill:#fefefe;fill-rule:nonzero" /><polygon
   points="178,314 178,306 171,306 171,314 "
   transform="translate(18,0)"
   id="polygon38"
   style="fill:#fefefe;fill-rule:nonzero" /><polygon
   points="200,314 200,306 192,306 192,314 "
   transform="translate(18,0)"
   id="polygon40"
   style="fill:#fefefe;fill-rule:nonzero" /><polygon
   points="134,156 134,154 108,154 108,156 "
   transform="translate(18,0)"
   id="polygon42"
   style="fill:#909090;fill-opacity:1;fill-rule:nonzero" /><polygon
   points="122,168 122,142 120,142 120,168 "
   transform="translate(18,0)"
   id="polygon44"
   style="fill:#909090;fill-opacity:1;fill-rule:nonzero" /><polygon
   points="292,218 292,216 267,216 267,218 "
   transform="translate(18,0)"
   id="polygon46"
   style="fill:#909090;fill-opacity:1;fill-rule:nonzero" /><polygon
   points="281,230 281,205 279,205 279,230 "
   transform="translate(18,0)"
   id="polygon48"
   style="fill:#909090;fill-opacity:1;fill-rule:nonzero" /><path
   d="m 178,149 c 0,4 -3,8 -7,8 -5,0 -8,-4 -8,-8 0,-4 3,-7 8,-7 4,0 7,3 7,7 z"
   id="path50"
   style="fill:#ebebf3;fill-rule:nonzero" /><path
   d="m 271,254 c -4,0 -8,3 -8,7 0,4 4,7 8,7 4,0 7,-3 7,-7 0,-4 -3,-7 -7,-7 z m 0,16 c -6,0 -10,-4 -10,-9 0,-6 4,-10 10,-10 5,0 9,4 9,10 0,5 -4,9 -9,9 z"
   id="path52"
   style="fill:#909090;fill-opacity:1;fill-rule:nonzero" /><path
   d="m 250,324 0,-27 c 0,-4 -4,-7 -8,-7 -4,0 -7,3 -7,7 l 0,0 c 0,-4 -4,-7 -8,-7 -4,0 -8,3 -8,7 l 0,0 c 0,-4 -3,-7 -7,-7 -4,0 -8,3 -8,7 l 0,5 0,-43 0,0 c 0,-4 -3,-7 -7,-7 -5,0 -8,3 -8,7 l 0,4 0,4 0,26 c 0,-1 -1,-1 -1,-1 -4,0 -7,4 -7,8 l 0,33 0,4 0,2 c 0,19 15,35 34,35 19,0 35,-16 35,-35 l 0,-1 0,-14 z"
   id="path54"
   style="fill:#fefefe;fill-rule:nonzero" /><path
   d="m 203,297 c 0,-5 3,-9 8,-9 0,0 0,0 0,0 5,0 9,4 9,9 l -2,0 c 0,-3 -3,-6 -7,-6 0,0 0,0 0,0 -3,0 -6,3 -6,6 l -2,0 z"
   id="path56"
   style="fill:#2b2928;fill-rule:nonzero" /><path
   d="m 218,297 c 0,-2 1,-4 2,-6 2,-2 4,-3 6,-3 3,0 5,1 7,3 1,1 2,4 2,6 l -2,0 c 0,-2 -1,-3 -2,-4 -1,-2 -3,-2 -5,-2 -1,0 -3,0 -4,2 -1,1 -2,3 -2,4 l -2,0 z"
   id="path58"
   style="fill:#2b2928;fill-rule:nonzero" /><path
   d="m 187,293 0,-34 c 0,-5 4,-9 9,-9 0,0 0,0 0,0 5,0 9,4 9,9 l -3,0 c 0,-3 -2,-6 -6,-6 0,0 0,0 0,0 -3,0 -6,3 -6,6 l 0,8 0,26 -3,0 z"
   id="path60"
   style="fill:#2b2928;fill-rule:nonzero" /><polygon
   points="184,259 187,259 187,302 185,302 "
   transform="translate(18,0)"
   id="polygon62"
   style="fill:#2b2928;fill-rule:nonzero" /><path
   d="m 215,375 c -20,0 -36,-16 -36,-36 l 0,-2 0,-4 0,-33 c 0,-5 4,-9 8,-9 5,0 9,4 9,9 l 0,20 -3,0 0,-20 c 0,-4 -2,-6 -6,-6 -3,0 -6,2 -6,6 l 0,33 0,4 0,2 c 0,18 15,33 34,34 18,-1 33,-16 33,-34 l 0,-1 0,-14 0,-27 c 0,-3 -3,-6 -6,-6 0,0 0,0 0,0 -2,0 -4,0 -5,2 -1,1 -2,3 -2,4 l -2,0 c 0,-2 1,-4 2,-6 2,-2 4,-3 7,-3 0,0 0,0 0,0 4,0 8,4 8,9 l 0,27 1,15 c 0,20 -17,36 -36,36 z"
   id="path64"
   style="fill:#2b2928;fill-rule:nonzero" /><polygon
   points="202,302 202,296 200,296 200,302 "
   transform="translate(18,0)"
   id="polygon66"
   style="fill:#2b2928;fill-rule:nonzero" /><polygon
   points="217,302 217,296 215,296 215,302 "
   transform="translate(18,0)"
   id="polygon68"
   style="fill:#2b2928;fill-rule:nonzero" /><path
   d="m 128,280 c 0,10 -7,17 -17,17 -9,0 -17,-7 -17,-17 0,-9 8,-17 17,-17 10,0 17,8 17,17 z"
   id="path70"
   style="fill:#fefefe;fill-rule:nonzero" /><path
   d="m 197,132 c 0,4 -3,7 -7,7 -4,0 -7,-3 -7,-7 0,-4 3,-7 7,-7 4,0 7,3 7,7 z"
   id="path72"
   style="fill:#fefefe;fill-rule:nonzero" /><polygon
   points="121,194 121,192 71,192 71,194 "
   transform="translate(18,0)"
   id="polygon74"
   style="fill:#fefefe;fill-rule:nonzero" /><polygon
   points="120,206 120,203 93,203 93,206 "
   transform="translate(18,0)"
   id="polygon76"
   style="fill:#fefefe;fill-rule:nonzero" /><polygon
   points="118,257 118,255 75,255 75,257 "
   transform="translate(18,0)"
   id="polygon78"
   style="fill:#fefefe;fill-rule:nonzero" /><polygon
   points="120,326 120,323 86,323 86,326 "
   transform="translate(18,0)"
   id="polygon80"
   style="fill:#909090;fill-opacity:1;fill-rule:nonzero" /><polygon
   points="156,360 156,357 108,357 108,360 "
   transform="translate(18,0)"
   id="polygon82"
   style="fill:#909090;fill-opacity:1;fill-rule:nonzero" /><polygon
   points="255,315 255,313 239,313 239,315 "
   transform="translate(18,0)"
   id="polygon84"
   style="fill:#909090;fill-opacity:1;fill-rule:nonzero" /><path
   d="m 134,305 c -2,0 -5,2 -5,5 0,2 3,5 5,5 3,0 5,-3 5,-5 0,-3 -2,-5 -5,-5 z m 0,12 c -4,0 -7,-3 -7,-7 0,-4 3,-8 7,-8 4,0 8,4 8,8 0,4 -4,7 -8,7 z"
   id="path86"
   style="fill:#909090;fill-opacity:1;fill-rule:nonzero" /><polygon
   points="117,352 117,350 97,350 97,352 "
   transform="translate(18,0)"
   id="polygon88"
   style="fill:#909090;fill-opacity:1;fill-rule:nonzero" />
</svg>