<?xml version="1.0" encoding="UTF-8" standalone="no"?>
<!-- Created with Inkscape (http://www.inkscape.org/) -->

<svg
   xmlns:dc="http://purl.org/dc/elements/1.1/"
   xmlns:cc="http://creativecommons.org/ns#"
   xmlns:rdf="http://www.w3.org/1999/02/22-rdf-syntax-ns#"
   xmlns:svg="http://www.w3.org/2000/svg"
   xmlns="http://www.w3.org/2000/svg"
   version="1.1"
   width="360"
   height="500"
   viewBox="0 0 360 500"
   id="svg2"
   xml:space="preserve"
   style="fill-rule:evenodd"><metadata
   id="metadata206"><rdf:RDF><cc:Work
       rdf:about=""><dc:format>image/svg+xml</dc:format><dc:type
         rdf:resource="http://purl.org/dc/dcmitype/StillImage" /><dc:title></dc:title></cc:Work></rdf:RDF></metadata>
 <defs
   id="defs4">
  <style
   type="text/css"
   id="style6" />
 
  
  
  
  
  
  
  
  
  
  
  
  
  
  
  
  
  
  
  
  
  
  
  
  
  
  
  
  
  
  
  
  
  
  
  
  
  
  
  
  
  
  
  
 </defs>
 
<g
   transform="translate(425.04236,15.771186)"
   id="g4149"><polygon
     points="565,172 749,172 749,40 565,40 "
     transform="translate(-877.04236,123.99153)"
     id="polygon89"
     style="fill:#fefefe;fill-rule:nonzero" /><path
     d="m -311.04236,293.99153 182,0 0,-129 -182,0 0,129 z m 184,3 -187,0 0,-134 187,0 0,134 z"
     id="path91"
     style="fill:#2b2928;fill-rule:nonzero" /><path
     d="m -266.04236,255.99153 c -11,0 -22,-1 -32,-3 l 0,30 152,0 0,-110 c -6,47 -58,83 -120,83 z"
     id="path93"
     style="fill:#00a5ff;fill-opacity:1;fill-rule:nonzero" /><path
     d="m -267.04236,257.99153 c -11,0 -21,-1 -32,-4 l 1,-2 c 10,2 20,3 31,3 62,0 113,-35 120,-82 l 2,0 c -6,48 -59,85 -122,85 z"
     id="path95"
     style="fill:#2b2928;fill-rule:nonzero" /><path
     d="m -285.04236,194.99153 -8,0 0,-3 8,0 0,3 z m 15,0 -8,0 0,-3 8,0 0,3 z m 15,0 -8,0 0,-3 8,0 0,3 z m 15,0 -8,0 0,-3 8,0 0,3 z m 15,0 -8,0 0,-3 8,0 0,3 z m 15,0 -8,0 0,-3 8,0 0,3 z m 15,0 -8,0 0,-3 8,0 0,3 z m 15,0 -8,0 0,-3 8,0 0,3 z m 15,0 -8,0 0,-3 8,0 0,3 z"
     id="path97"
     style="fill:#8f8f8f;fill-opacity:0.69019608;fill-rule:nonzero" /><path
     d="m -285.04236,218.99153 -8,0 0,-2 8,0 0,2 z m 15,0 -8,0 0,-2 8,0 0,2 z m 15,0 -8,0 0,-2 8,0 0,2 z m 15,0 -8,0 0,-2 8,0 0,2 z m 15,0 -8,0 0,-2 8,0 0,2 z m 15,0 -8,0 0,-2 8,0 0,2 z m 15,0 -8,0 0,-2 8,0 0,2 z m 15,0 -8,0 0,-2 8,0 0,2 z m 10,0 -3,0 0,-2 3,0 0,2 z"
     id="path99"
     style="fill:#8f8f8f;fill-opacity:0.69019608;fill-rule:nonzero" /><path
     d="m -291.04236,240.99153 -7,0 0,-2 7,0 0,2 z m 15,0 -7,0 0,-2 7,0 0,2 z m 15,0 -7,0 0,-2 7,0 0,2 z m 15,0 -7,0 0,-2 7,0 0,2 z m 15,0 -7,0 0,-2 7,0 0,2 z m 15,0 -7,0 0,-2 7,0 0,2 z m 15,0 -7,0 0,-2 7,0 0,2 z"
     id="path101"
     style="fill:#8f8f8f;fill-opacity:0.69019608;fill-rule:nonzero" /><path
     d="m -285.04236,244.99153 -8,0 0,-2 8,0 0,2 z m 15,0 -8,0 0,-2 8,0 0,2 z"
     id="path103"
     style="fill:#2b2928;fill-rule:nonzero" /><polygon
     points="579,40 578,38 651,3 721,38 720,40 651,5 "
     transform="translate(-877.04236,123.99153)"
     id="polygon105"
     style="fill:#8f8f8f;fill-opacity:0.69019608;fill-rule:nonzero" /><polygon
     points="650,13 649,11 668,0 669,2 "
     transform="translate(-877.04236,123.99153)"
     id="polygon107"
     style="fill:#8f8f8f;fill-opacity:0.69019608;fill-rule:nonzero" /><polygon
     points="766,171 787,171 787,168 766,168 "
     transform="translate(-877.04236,123.99153)"
     id="polygon109"
     style="fill:#8f8f8f;fill-opacity:0.69019608;fill-rule:nonzero" /><polygon
     points="775,180 778,180 778,159 775,159 "
     transform="translate(-877.04236,123.99153)"
     id="polygon111"
     style="fill:#8f8f8f;fill-opacity:0.69019608;fill-rule:nonzero" /><polygon
     points="581,6 602,6 602,3 581,3 "
     transform="translate(-877.04236,123.99153)"
     id="polygon113"
     style="fill:#8f8f8f;fill-opacity:0.69019608;fill-rule:nonzero" /><polygon
     points="590,14 593,14 593,-6 590,-6 "
     transform="translate(-877.04236,123.99153)"
     id="polygon115"
     style="fill:#8f8f8f;fill-opacity:0.69019608;fill-rule:nonzero" /><polygon
     points="645,187 664,187 664,184 645,184 "
     transform="translate(-877.04236,123.99153)"
     id="polygon117"
     style="fill:#8f8f8f;fill-opacity:0.69019608;fill-rule:nonzero" /><polygon
     points="658,202 696,202 696,200 658,200 "
     transform="translate(-877.04236,123.99153)"
     id="polygon119"
     style="fill:#8f8f8f;fill-opacity:0.69019608;fill-rule:nonzero" /><polygon
     points="727,191 741,191 741,189 727,189 "
     transform="translate(-877.04236,123.99153)"
     id="polygon121"
     style="fill:#8f8f8f;fill-opacity:0.69019608;fill-rule:nonzero" /><path
     d="m -115.04236,187.99153 c -3,0 -5,2 -5,5 0,3 2,5 5,5 3,0 5,-2 5,-5 0,-3 -2,-5 -5,-5 z m 0,12 c -4,0 -7,-3 -7,-7 0,-4 3,-7 7,-7 4,0 7,3 7,7 0,4 -3,7 -7,7 z"
     id="path123"
     style="fill:#8f8f8f;fill-opacity:0.69019608;fill-rule:nonzero" /><path
     d="m -163.04236,309.99153 c -2,0 -3,2 -3,4 0,2 1,3 3,3 2,0 4,-1 4,-3 0,-2 -2,-4 -4,-4 z m 0,10 c -3,0 -6,-3 -6,-6 0,-4 3,-7 6,-7 4,0 6,3 6,7 0,3 -2,6 -6,6 z"
     id="path125"
     style="fill:#8f8f8f;fill-opacity:0.69019608;fill-rule:nonzero" /><polygon
     points="537,222 640,222 640,88 537,88 "
     transform="translate(-877.04236,123.99153)"
     id="polygon127"
     style="fill:#dfd9ce;fill-rule:nonzero" /><polygon
     points="554,126 547,118 548,117 554,122 566,109 568,110 "
     transform="translate(-877.04236,123.99153)"
     id="polygon129"
     style="fill:#2b2928;fill-rule:nonzero" /><polygon
     points="556,151 548,144 550,142 555,148 567,134 569,136 "
     transform="translate(-877.04236,123.99153)"
     id="polygon131"
     style="fill:#2b2928;fill-rule:nonzero" /><polygon
     points="557,177 549,169 551,167 557,173 568,160 570,161 "
     transform="translate(-877.04236,123.99153)"
     id="polygon133"
     style="fill:#2b2928;fill-rule:nonzero" /><polygon
     points="574,121 627,121 627,108 574,108 "
     transform="translate(-877.04236,123.99153)"
     id="polygon135"
     style="fill:#fefefe;fill-rule:nonzero" /><polygon
     points="574,149 627,149 627,136 574,136 "
     transform="translate(-877.04236,123.99153)"
     id="polygon137"
     style="fill:#fefefe;fill-rule:nonzero" /><polygon
     points="574,177 627,177 627,164 574,164 "
     transform="translate(-877.04236,123.99153)"
     id="polygon139"
     style="fill:#fefefe;fill-rule:nonzero" /><polygon
     points="574,205 627,205 627,192 574,192 "
     transform="translate(-877.04236,123.99153)"
     id="polygon141"
     style="fill:#fefefe;fill-rule:nonzero" /><path
     d="m -318.04236,315.99153 c -3,0 -5,3 -5,5 0,3 2,5 5,5 2,0 5,-2 5,-5 0,-2 -3,-5 -5,-5 z m 0,13 c -4,0 -8,-3 -8,-8 0,-4 4,-7 8,-7 4,0 7,3 7,7 0,5 -3,8 -7,8 z"
     id="path143"
     style="fill:#2b2928;fill-rule:nonzero" /><path
     d="m -260.04236,205.99153 -18,0 0,-9 c 0,-4 -4,-8 -8,-8 -5,0 -8,4 -8,8 l 0,9 -18,0 c -5,0 -8,4 -8,9 l 68,0 c 0,-5 -4,-9 -8,-9 z"
     id="path145"
     style="fill:#fefefe;fill-rule:nonzero" /><path
     d="m -319.04236,213.99153 66,0 c -1,-4 -4,-6 -7,-6 l -19,0 0,-11 c 0,-3 -3,-6 -7,-6 -4,0 -7,3 -7,6 l 0,11 -19,0 c -3,0 -6,2 -7,6 z m 68,2 -71,0 0,-1 c 0,-6 5,-10 10,-10 l 17,0 0,-8 c 0,-5 4,-9 9,-9 5,0 9,4 9,9 l 0,8 17,0 c 5,0 9,4 9,10 l 0,1 z"
     id="path147"
     style="fill:#2b2928;fill-rule:nonzero" /></g></svg>